<svg xmlns="http://www.w3.org/2000/svg" version="1.1" xmlns:xlink="http://www.w3.org/1999/xlink" xmlns:svgjs="http://svgjs.com/svgjs" width="850mm" height="850mm"><svg width="850mm" height="850mm" viewBox="0 0 850 850.00001" version="1.1" id="SvgjsSvg1010" inkscape:version="1.2.1 (9c6d41e410, 2022-07-14, custom)" sodipodi:docname="DeveloperTools.Tech Logo Master.svg" xmlns:inkscape="http://www.inkscape.org/namespaces/inkscape" xmlns:sodipodi="http://sodipodi.sourceforge.net/DTD/sodipodi-0.dtd" xmlns="http://www.w3.org/2000/svg" xmlns:svg="http://www.w3.org/2000/svg">
  <sodipodi:namedview id="SvgjsSodipodi:namedview1009" pagecolor="#ffffff" bordercolor="#666666" borderopacity="1.0" inkscape:showpageshadow="2" inkscape:pageopacity="0.0" inkscape:pagecheckerboard="0" inkscape:deskcolor="#d1d1d1" inkscape:document-units="mm" showgrid="false" inkscape:zoom="0.11436325" inkscape:cx="682.03728" inkscape:cy="1311.6101" inkscape:window-width="1630" inkscape:window-height="936" inkscape:window-x="1888" inkscape:window-y="1077" inkscape:window-maximized="0" inkscape:current-layer="layer1"></sodipodi:namedview>
  <defs id="SvgjsDefs1008">
    <inkscape:path-effect effect="offset" id="SvgjsInkscape:path-effect1007" is_visible="true" lpeversion="1.2" linejoin_type="miter" unit="mm" offset="2" miter_limit="4" attempt_force_join="false" update_on_knot_move="true"></inkscape:path-effect>
    <inkscape:path-effect effect="offset" id="SvgjsInkscape:path-effect1006" is_visible="true" lpeversion="1.2" linejoin_type="miter" unit="mm" offset="0.8" miter_limit="4" attempt_force_join="false" update_on_knot_move="true"></inkscape:path-effect>
    <inkscape:path-effect effect="offset" id="SvgjsInkscape:path-effect1005" is_visible="true" lpeversion="1.2" linejoin_type="miter" unit="mm" offset="1.8" miter_limit="4" attempt_force_join="false" update_on_knot_move="true"></inkscape:path-effect>
  </defs>
  <g inkscape:label="Layer 1" inkscape:groupmode="layer" id="SvgjsG1004" transform="translate(169.55899,169.92381)">
    <path d="m -25.209009,560.25327 -56.454055,-689.94332 674.208154,1.38648 -59.6946,688.55684 -274.86489,79.58916 z" fill="#e9ca32" id="SvgjsPath1003" style="fill:#f9f9f9;fill-opacity:1;stroke-width:5.43717"></path>
    <path d="m 15.01176,516.51745 -48.36346,-591.065535 577.58543,1.18778 -51.1396,589.877755 -235.4732,68.18302 z" fill="#e9ca32" id="SvgjsPath1002" style="fill:#3e209f;fill-opacity:1;stroke-width:4.65795"></path>
    <path d="M 257.62093,527.61733 V -18.256795 l 237.85341,0.79185 -42.41527,488.390405 z" fill="#ffde25" id="SvgjsPath1001" style="fill:#562ce2;fill-opacity:1;stroke-width:4.65795"></path>
    <path d="m 119.77894,193.60332 c 18.43793,-14.32758 33.73427,-4.44423 54.14931,19.18934 2.29308,2.66652 5.37788,-0.44817 7.13317,-1.97938 1.74034,-1.53867 28.67531,-25.78993 29.99962,-26.89688 1.30713,-1.1652 2.88315,-3.33876 0.81416,-5.77375 -4.9986,-6.18255 -9.8939,-12.4479 -14.68387,-18.79346 -35.7308,-46.73829 97.74526,-78.437923 77.25182,-78.931643 -10.4346,-0.298771 -52.29171,-0.769336 -58.55621,-0.0747 -25.35522,2.666532 -57.19303,26.363578 -73.21987,37.410648 -20.96852,14.34775 -28.79409,22.76637 -30.0788,23.93233 -5.93061,5.17621 -0.94861,17.13379 -11.69915,26.56077 -11.363762,9.94012 -18.458079,2.41257 -25.039272,8.18185 -3.264071,2.88314 -12.390784,9.72276 -14.999808,11.99567 -2.62919,2.31547 -3.099748,6.20697 -0.448159,9.30821 0,0 24.980274,27.58854 27.074654,30.03847 2.076459,2.41257 7.727725,4.50396 11.205418,1.40422 3.495627,-3.08481 12.490127,-10.92906 13.992207,-12.31235 1.53867,-1.30713 -0.98595,-17.01503 7.07341,-23.2601 z m 112.8041,10.21722 c -2.36778,-2.74868 -5.31814,-2.82338 -7.84574,-0.59754 l -28.3392,24.74201 c -2.27079,2.0663 -2.50173,5.55813 -0.52285,7.90548 l 163.9104,186.53783 c 3.83175,4.40689 10.47418,4.86252 14.84146,1.04571 l 19.16992,-16.06642 c 4.39047,-3.86842 4.84694,-10.55088 1.0233,-14.9804 z m 218.55343,-79.38577 c -1.46396,-9.76309 -6.52067,-7.72697 -9.14986,-3.60019 -2.6292,4.16786 -14.24916,21.77819 -19.03174,29.76285 -4.743,7.90474 -16.44213,23.53646 -38.22032,8.10193 -22.68719,-16.02684 -14.80262,-27.21284 -10.84988,-34.74187 3.97367,-7.56937 16.16577,-28.794085 17.92478,-31.422526 1.76275,-2.666533 -0.29876,-10.415167 -7.33482,-7.170511 -7.05848,3.241669 -49.86121,20.255947 -55.78957,44.662567 -6.06506,24.82192 5.07911,47.0154 -16.79842,69.05053 l -44.00156,45.82021 26.65936,30.94749 50.14803,-49.17916 c 7.78673,-7.82631 24.4268,-15.43451 39.48562,-11.9964 32.27178,7.29 49.88061,-4.82517 60.49297,-24.86077 9.52558,-17.90461 7.94433,-55.61179 6.46092,-65.37415 z M 111.95263,394.44932 c -4.11457,4.14557 -4.11457,10.83406 0,14.97964 l 18.79421,18.37966 c 4.10811,4.13052 10.63252,2.39018 14.74286,-1.74034 L 260.64375,309.58012 230.94066,275.70767 Z" id="SvgjsPath1000" style="fill:#f9f9f9;stroke-width:19.7625;fill-opacity:1" sodipodi:nodetypes="ccccccccccccccccccccccccccccccccccccccccccccccccccc"></path>
  </g>
</svg><style>@media (prefers-color-scheme: light) { :root { filter: none; } }
</style></svg>