<?xml version="1.0" encoding="UTF-8" standalone="no"?>
<svg
   xmlns:dc="http://purl.org/dc/elements/1.1/"
   xmlns:cc="http://creativecommons.org/ns#"
   xmlns:rdf="http://www.w3.org/1999/02/22-rdf-syntax-ns#"
   xmlns:svg="http://www.w3.org/2000/svg"
   xmlns="http://www.w3.org/2000/svg"
   xmlns:sodipodi="http://sodipodi.sourceforge.net/DTD/sodipodi-0.dtd"
   xmlns:inkscape="http://www.inkscape.org/namespaces/inkscape"
   inkscape:export-ydpi="96"
   inkscape:export-xdpi="96"
   inkscape:export-filename="/home/dan/Documents/AZWebDev.pro/Logo Design/dlford-logo-2020/png/dlf-icon-white.png"
   inkscape:version="1.0 (4035a4fb49, 2020-05-01)"
   sodipodi:docname="dlf-horizontal-inverted.svg"
   id="svg8"
   version="1.1"
   viewBox="0 0 1920 712.91697"
   height="712.91699"
   width="1920">
  <defs
     id="defs2">
    <inkscape:path-effect
       effect="offset"
       id="path-effect1192"
       is_visible="true"
       lpeversion="1"
       linejoin_type="miter"
       unit="mm"
       offset="-1.0432434"
       miter_limit="4"
       attempt_force_join="true"
       update_on_knot_move="true" />
    <inkscape:path-effect
       effect="offset"
       id="path-effect1190"
       is_visible="true"
       lpeversion="1"
       linejoin_type="miter"
       unit="mm"
       offset="-1.0432434"
       miter_limit="4"
       attempt_force_join="true"
       update_on_knot_move="true" />
    <inkscape:path-effect
       effect="offset"
       id="path-effect1188"
       is_visible="true"
       lpeversion="1"
       linejoin_type="miter"
       unit="mm"
       offset="-1.0432434"
       miter_limit="4"
       attempt_force_join="true"
       update_on_knot_move="true" />
    <inkscape:path-effect
       effect="offset"
       id="path-effect1186"
       is_visible="true"
       lpeversion="1"
       linejoin_type="miter"
       unit="mm"
       offset="-1.0432461"
       miter_limit="4"
       attempt_force_join="true"
       update_on_knot_move="true" />
    <inkscape:path-effect
       effect="offset"
       id="path-effect1176"
       is_visible="true"
       lpeversion="1"
       linejoin_type="miter"
       unit="mm"
       offset="12"
       miter_limit="4"
       attempt_force_join="true"
       update_on_knot_move="true" />
    <inkscape:path-effect
       effect="offset"
       id="path-effect1168"
       is_visible="true"
       lpeversion="1"
       linejoin_type="miter"
       unit="mm"
       offset="15"
       miter_limit="4"
       attempt_force_join="true"
       update_on_knot_move="true" />
    <inkscape:path-effect
       update_on_knot_move="true"
       attempt_force_join="true"
       miter_limit="4"
       offset="12"
       unit="mm"
       linejoin_type="miter"
       lpeversion="1"
       is_visible="true"
       id="path-effect1328"
       effect="offset" />
    <inkscape:path-effect
       update_on_knot_move="true"
       attempt_force_join="true"
       miter_limit="4"
       offset="1.9013971"
       unit="mm"
       linejoin_type="miter"
       lpeversion="1"
       is_visible="true"
       id="path-effect1283"
       effect="offset" />
    <inkscape:path-effect
       update_on_knot_move="true"
       attempt_force_join="true"
       miter_limit="4"
       offset="1.9013971"
       unit="mm"
       linejoin_type="miter"
       lpeversion="1"
       is_visible="true"
       id="path-effect1281"
       effect="offset" />
    <inkscape:path-effect
       update_on_knot_move="true"
       attempt_force_join="true"
       miter_limit="4"
       offset="1.9013971"
       unit="mm"
       linejoin_type="miter"
       lpeversion="1"
       is_visible="true"
       id="path-effect1279"
       effect="offset" />
    <inkscape:path-effect
       update_on_knot_move="true"
       attempt_force_join="true"
       miter_limit="4"
       offset="1.9014111"
       unit="mm"
       linejoin_type="miter"
       lpeversion="1"
       is_visible="true"
       id="path-effect1263"
       effect="offset" />
    <inkscape:path-effect
       update_on_knot_move="true"
       attempt_force_join="true"
       miter_limit="4"
       offset="5"
       unit="mm"
       linejoin_type="miter"
       lpeversion="1"
       is_visible="true"
       id="path-effect1255"
       effect="offset" />
    <inkscape:path-effect
       effect="offset"
       id="path-effect2612"
       is_visible="true"
       lpeversion="1"
       linejoin_type="miter"
       unit="mm"
       offset="3"
       miter_limit="4"
       attempt_force_join="true"
       update_on_knot_move="true" />
    <inkscape:path-effect
       effect="offset"
       id="path-effect2608"
       is_visible="true"
       lpeversion="1"
       linejoin_type="miter"
       unit="mm"
       offset="3"
       miter_limit="4"
       attempt_force_join="true"
       update_on_knot_move="true" />
    <inkscape:path-effect
       effect="offset"
       id="path-effect2606"
       is_visible="true"
       lpeversion="1"
       linejoin_type="miter"
       unit="mm"
       offset="1"
       miter_limit="4"
       attempt_force_join="true"
       update_on_knot_move="true" />
    <inkscape:path-effect
       update_on_knot_move="true"
       attempt_force_join="true"
       miter_limit="4"
       offset="10"
       unit="mm"
       linejoin_type="miter"
       lpeversion="1"
       is_visible="true"
       id="path-effect1856"
       effect="offset" />
    <inkscape:path-effect
       effect="offset"
       id="path-effect1809"
       is_visible="true"
       lpeversion="1"
       linejoin_type="miter"
       unit="mm"
       offset="2"
       miter_limit="4"
       attempt_force_join="true"
       update_on_knot_move="true" />
    <inkscape:path-effect
       update_on_knot_move="true"
       attempt_force_join="true"
       miter_limit="4"
       offset="4"
       unit="mm"
       linejoin_type="miter"
       lpeversion="1"
       is_visible="true"
       id="path-effect4221"
       effect="offset" />
    <inkscape:path-effect
       update_on_knot_move="true"
       attempt_force_join="true"
       miter_limit="4"
       offset="4"
       unit="mm"
       linejoin_type="miter"
       lpeversion="1"
       is_visible="true"
       id="path-effect4013"
       effect="offset" />
    <inkscape:path-effect
       effect="offset"
       id="path-effect1724"
       is_visible="true"
       lpeversion="1"
       linejoin_type="miter"
       unit="mm"
       offset="4"
       miter_limit="4"
       attempt_force_join="true"
       update_on_knot_move="true" />
    <inkscape:path-effect
       effect="offset"
       id="path-effect1519"
       is_visible="true"
       lpeversion="1"
       linejoin_type="miter"
       unit="mm"
       offset="4"
       miter_limit="4"
       attempt_force_join="true"
       update_on_knot_move="true" />
    <inkscape:path-effect
       effect="offset"
       id="path-effect1426"
       is_visible="true"
       lpeversion="1"
       linejoin_type="miter"
       unit="mm"
       offset="4"
       miter_limit="4"
       attempt_force_join="true"
       update_on_knot_move="true" />
    <inkscape:path-effect
       effect="offset"
       id="path-effect1421"
       is_visible="true"
       lpeversion="1"
       linejoin_type="miter"
       unit="mm"
       offset="4"
       miter_limit="4"
       attempt_force_join="true"
       update_on_knot_move="true" />
    <inkscape:path-effect
       effect="offset"
       id="path-effect1407"
       is_visible="true"
       lpeversion="1"
       linejoin_type="miter"
       unit="mm"
       offset="4"
       miter_limit="4"
       attempt_force_join="true"
       update_on_knot_move="true" />
    <inkscape:path-effect
       effect="offset"
       id="path-effect1388"
       is_visible="true"
       lpeversion="1"
       linejoin_type="miter"
       unit="mm"
       offset="4"
       miter_limit="4"
       attempt_force_join="true"
       update_on_knot_move="true" />
    <inkscape:path-effect
       effect="skeletal"
       id="path-effect1356"
       is_visible="true"
       lpeversion="1"
       pattern="m 311.69629,839.59583 h 74.72884 v 74.72884 h -74.72884 z"
       copytype="repeated_stretched"
       prop_scale="0.80239939"
       scale_y_rel="false"
       spacing="80"
       normal_offset="0"
       tang_offset="0"
       prop_units="false"
       vertical_pattern="false"
       hide_knot="false"
       fuse_tolerance="0" />
    <inkscape:path-effect
       effect="offset"
       id="path-effect1325"
       is_visible="true"
       lpeversion="1"
       linejoin_type="miter"
       unit="mm"
       offset="4"
       miter_limit="4"
       attempt_force_join="true"
       update_on_knot_move="true" />
    <inkscape:path-effect
       effect="offset"
       id="path-effect1317"
       is_visible="true"
       lpeversion="1"
       linejoin_type="miter"
       unit="mm"
       offset="8.8"
       miter_limit="4"
       attempt_force_join="true"
       update_on_knot_move="true" />
    <inkscape:path-effect
       effect="offset"
       id="path-effect1312"
       is_visible="true"
       lpeversion="1"
       linejoin_type="miter"
       unit="mm"
       offset="5.3"
       miter_limit="4"
       attempt_force_join="true"
       update_on_knot_move="true" />
    <inkscape:path-effect
       effect="offset"
       id="path-effect1158"
       is_visible="true"
       lpeversion="1"
       linejoin_type="miter"
       unit="mm"
       offset="2"
       miter_limit="4"
       attempt_force_join="true"
       update_on_knot_move="true" />
    <inkscape:path-effect
       effect="offset"
       id="path-effect1153"
       is_visible="true"
       lpeversion="1"
       linejoin_type="miter"
       unit="mm"
       offset="2"
       miter_limit="4"
       attempt_force_join="true"
       update_on_knot_move="true" />
    <inkscape:path-effect
       effect="offset"
       id="path-effect1148"
       is_visible="true"
       lpeversion="1"
       linejoin_type="miter"
       unit="mm"
       offset="5"
       miter_limit="4"
       attempt_force_join="true"
       update_on_knot_move="true" />
    <inkscape:path-effect
       effect="offset"
       id="path-effect1139"
       is_visible="true"
       lpeversion="1"
       linejoin_type="miter"
       unit="mm"
       offset="2"
       miter_limit="4"
       attempt_force_join="true"
       update_on_knot_move="true" />
    <inkscape:path-effect
       effect="skeletal"
       id="path-effect1059"
       is_visible="true"
       lpeversion="1"
       pattern="m 456.92249,654.15134 h 51.53883 c 3.83385,0 6.9203,2.42125 6.9203,5.42881 v 40.43093 c 0,3.00754 -3.08645,5.42878 -6.9203,5.42878 h -51.53883 c -3.83385,0 -6.92029,-2.42124 -6.92029,-5.42878 v -40.43093 c 0,-3.00756 3.08644,-5.42881 6.92029,-5.42881 z"
       copytype="repeated_stretched"
       prop_scale="1"
       scale_y_rel="true"
       spacing="64"
       normal_offset="0"
       tang_offset="0"
       prop_units="false"
       vertical_pattern="false"
       hide_knot="false"
       fuse_tolerance="0" />
    <inkscape:path-effect
       update_on_knot_move="true"
       attempt_force_join="true"
       miter_limit="4"
       offset="20"
       unit="px"
       linejoin_type="miter"
       lpeversion="1"
       is_visible="true"
       id="path-effect1115"
       effect="offset" />
    <inkscape:path-effect
       effect="offset"
       id="path-effect1864"
       is_visible="true"
       lpeversion="1"
       linejoin_type="miter"
       unit="mm"
       offset="1"
       miter_limit="4"
       attempt_force_join="true"
       update_on_knot_move="true" />
    <inkscape:path-effect
       update_on_knot_move="true"
       attempt_force_join="true"
       miter_limit="4"
       offset="2"
       unit="px"
       linejoin_type="miter"
       lpeversion="1"
       is_visible="true"
       id="path-effect2184"
       effect="offset" />
    <inkscape:path-effect
       update_on_knot_move="true"
       attempt_force_join="true"
       miter_limit="4"
       offset="5"
       unit="mm"
       linejoin_type="miter"
       lpeversion="1"
       is_visible="true"
       id="path-effect1807"
       effect="offset" />
    <inkscape:path-effect
       update_on_knot_move="true"
       attempt_force_join="true"
       miter_limit="4"
       offset="2"
       unit="mm"
       linejoin_type="miter"
       lpeversion="1"
       is_visible="true"
       id="path-effect1802"
       effect="offset" />
    <inkscape:path-effect
       update_on_knot_move="true"
       attempt_force_join="true"
       miter_limit="4"
       offset="1"
       unit="mm"
       linejoin_type="miter"
       lpeversion="1"
       is_visible="true"
       id="path-effect1798"
       effect="offset" />
    <rect
       id="rect835"
       height="53.881306"
       width="138.08598"
       y="26.927912"
       x="27.28602" />
  </defs>
  <sodipodi:namedview
     scale-x="0.26458"
     inkscape:object-nodes="true"
     inkscape:snap-nodes="true"
     inkscape:guide-bbox="true"
     showguides="true"
     inkscape:snap-text-baseline="true"
     inkscape:snap-center="true"
     inkscape:snap-object-midpoints="true"
     inkscape:snap-midpoints="true"
     inkscape:snap-smooth-nodes="true"
     inkscape:snap-intersection-paths="true"
     inkscape:object-paths="true"
     inkscape:snap-bbox-midpoints="true"
     inkscape:snap-bbox-edge-midpoints="true"
     inkscape:bbox-nodes="true"
     inkscape:bbox-paths="true"
     inkscape:snap-bbox="true"
     inkscape:window-maximized="0"
     inkscape:window-y="1094"
     inkscape:window-x="1898"
     inkscape:window-height="1038"
     inkscape:window-width="1897"
     inkscape:snap-global="false"
     showborder="true"
     units="px"
     showgrid="false"
     inkscape:document-rotation="0"
     inkscape:current-layer="layer1"
     inkscape:document-units="px"
     inkscape:cy="285.80858"
     inkscape:cx="1144.7191"
     inkscape:zoom="0.35355339"
     inkscape:pageshadow="2"
     inkscape:pageopacity="0"
     borderopacity="1.0"
     bordercolor="#666666"
     pagecolor="#ffffff"
     id="base"
     lock-margins="true"
     fit-margin-top="110"
     fit-margin-left="110"
     fit-margin-right="110"
     fit-margin-bottom="110" />
  <metadata
     id="metadata5">
    <rdf:RDF>
      <cc:Work
         rdf:about="">
        <dc:format>image/svg+xml</dc:format>
        <dc:type
           rdf:resource="http://purl.org/dc/dcmitype/StillImage" />
        <dc:title />
      </cc:Work>
    </rdf:RDF>
  </metadata>
  <g
     id="layer1"
     inkscape:groupmode="layer"
     inkscape:label="Layer 1"
     transform="translate(-1161.3568,915.32175)">
    <text
       style="font-weight:900;font-size:25.4px;line-height:1.25;font-family:'Montserrat Alternates';-inkscape-font-specification:'Montserrat Alternates Heavy';letter-spacing:0px;word-spacing:0px;white-space:pre;shape-inside:url(#rect835);"
       id="text833"
       xml:space="preserve" />
    <text
       id="text853"
       y="102.48544"
       x="49.105797"
       style="font-weight:900;font-size:25.4px;line-height:1.25;font-family:'Montserrat Alternates';-inkscape-font-specification:'Montserrat Alternates Heavy';letter-spacing:0px;word-spacing:0px;stroke-width:0.264583"
       xml:space="preserve"><tspan
         style="stroke-width:0.264583"
         y="102.48544"
         x="49.105797"
         id="tspan851"
         sodipodi:role="line" /></text>
    <text
       id="text877"
       y="76.666763"
       x="193.9742"
       style="font-weight:900;font-size:25.4px;line-height:1.25;font-family:'Montserrat Alternates';-inkscape-font-specification:'Montserrat Alternates Heavy';letter-spacing:0px;word-spacing:0px;stroke-width:0.264583"
       xml:space="preserve"><tspan
         style="stroke-width:0.264583"
         y="76.666763"
         x="193.9742"
         id="tspan875"
         sodipodi:role="line" /></text>
    <text
       id="text1018"
       y="37.823994"
       x="59.279945"
       style="font-weight:900;font-size:25.4px;line-height:1.25;font-family:'Montserrat Alternates';-inkscape-font-specification:'Montserrat Alternates Heavy';letter-spacing:0px;word-spacing:0px;stroke-width:0.264583"
       xml:space="preserve"><tspan
         style="stroke-width:0.264583"
         y="37.823994"
         x="59.279945"
         id="tspan1016"
         sodipodi:role="line" /></text>
    <g
       id="g1561"
       transform="matrix(4.0252976,0,0,4.0252976,-2464.8067,-923.88287)">
      <g
         transform="translate(299.9429,-405.95035)"
         id="g1475">
        <path
           id="path1471"
           style="color:#000000;font-style:normal;font-variant:normal;font-weight:normal;font-stretch:normal;font-size:medium;line-height:normal;font-family:sans-serif;font-variant-ligatures:normal;font-variant-position:normal;font-variant-caps:normal;font-variant-numeric:normal;font-variant-alternates:normal;font-variant-east-asian:normal;font-feature-settings:normal;font-variation-settings:normal;text-indent:0;text-align:start;text-decoration:none;text-decoration-line:none;text-decoration-style:solid;text-decoration-color:#000000;letter-spacing:normal;word-spacing:normal;text-transform:none;writing-mode:lr-tb;direction:ltr;text-orientation:mixed;dominant-baseline:auto;baseline-shift:baseline;text-anchor:start;white-space:normal;shape-padding:0;shape-margin:0;inline-size:0;clip-rule:nonzero;display:inline;overflow:visible;visibility:visible;isolation:auto;mix-blend-mode:normal;color-interpolation:sRGB;color-interpolation-filters:linearRGB;solid-color:#000000;solid-opacity:1;vector-effect:none;fill:#0095ff;fill-opacity:1;fill-rule:nonzero;stroke:none;stroke-width:18.4364;stroke-linecap:round;stroke-linejoin:round;stroke-miterlimit:4;stroke-dasharray:none;stroke-dashoffset:0;stroke-opacity:1;color-rendering:auto;image-rendering:auto;shape-rendering:auto;text-rendering:auto;enable-background:accumulate;stop-color:#000000"
           d="m 587.23438,-820.2832 a 9.2191102,9.2191102 0 0 0 -0.16016,0.002 9.2181884,9.2181884 0 0 0 -0.0156,0 9.2191102,9.2191102 0 0 0 -7.81445,4.60547 L 452.0957,-595.44922 a 9.2191102,9.2191102 0 0 0 -1.23437,4.63281 9.2191102,9.2191102 0 0 0 0,0.0117 9.2191103,9.2191103 0 0 0 0,0.0137 9.2191102,9.2191102 0 0 0 0.004,0.23047 9.2191103,9.2191103 0 0 0 0.0274,0.49024 9.2191102,9.2191102 0 0 0 0.002,0.0254 9.2191103,9.2191103 0 0 0 0.002,0.0176 9.2191102,9.2191102 0 0 0 0.0234,0.23046 9.2191103,9.2191103 0 0 0 1.17578,3.58594 l 127.14844,220.22852 a 9.2191103,9.2191103 0 0 0 7.98047,4.60742 h 254.29297 a 9.2191103,9.2191103 0 0 0 0.16211,-0.002 l -0.002,0.002 a 9.2181883,9.2181883 0 0 0 0.0801,-0.004 9.2181883,9.2181883 0 0 0 0.0156,0 9.2191103,9.2191103 0 0 0 7.73437,-4.60351 l 127.14844,-220.22656 a 9.2191103,9.2191103 0 0 0 1.23437,-4.63282 9.2191103,9.2191103 0 0 0 0,-0.0254 9.2191102,9.2191102 0 0 0 -0.004,-0.23047 9.2191102,9.2191102 0 0 0 -0.0273,-0.49023 9.2191102,9.2191102 0 0 0 -0.002,-0.0195 9.2191103,9.2191103 0 0 0 -0.002,-0.0234 9.2191102,9.2191102 0 0 0 -0.0234,-0.23047 9.2191102,9.2191102 0 0 0 -1.17578,-3.58594 l -38.46289,-66.61914 -20.73047,0.97461 6.37891,11.04883 h -0.002 l 34.1875,59.2168 -34.80468,60.28906 -87.02344,150.72266 H 728.40625 592.55273 l -87.64257,-151.80078 h 0.002 l -34.1875,-59.2168 34.80469,-60.28906 87.02343,-150.72266 h 107.79297 13.05274 c 4.45698,-6.5222 9.4022,-12.68354 14.78125,-18.43945 z"
           transform="matrix(0.26458334,0,0,0.26458334,508.93747,653.47294)" />
        <path
           id="path1473"
           style="fill:#ff9400;fill-opacity:1;stroke-width:0.210168;stroke-linecap:round;stroke-linejoin:round"
           d="m 731.7605,435.40448 c -0.32862,0 -0.65472,0.009 -0.97774,0.015 -15.93236,0.49893 -28.48978,13.65821 -28.24027,29.5965 -0.004,14.03855 -0.001,28.19407 -0.001,42.26736 -5e-5,6.35263 -5.17822,11.52939 -11.53123,11.52933 -6.35292,-6e-5 -11.52926,-5.17639 -11.52932,-11.52933 -9e-5,-6.3532 5.17622,-11.52934 11.52932,-11.5294 h 2.9218 v -17.81237 h -2.93701 c -11.86328,0.009 -22.55352,7.1528 -27.09324,18.11304 -4.54183,10.96479 -2.03102,23.58409 6.36099,31.976 8.39216,8.39235 21.01117,10.90294 31.97624,6.3612 10.96493,-4.54199 18.11286,-15.24017 18.11289,-27.10847 v -15.91962 c 3.57907,1.5146 7.42426,2.35301 11.34481,2.35301 h 2.9218 v -17.62598 h -2.9218 c -4.11638,0 -7.93026,-2.20055 -9.98855,-5.76561 -3.17625,-5.50173 -1.28067,-12.57412 4.22104,-15.75028 5.50161,-3.17629 12.57382,-1.28085 15.75032,4.22101 0.91996,1.59327 1.44487,3.38405 1.53129,5.22344 l 0.13698,2.9181 17.60878,-0.82759 -0.13695,-2.91786 c -0.73048,-15.54583 -13.49447,-27.75243 -29.05824,-27.78761 z"
           sodipodi:nodetypes="scccssccscscscccccsccss" />
      </g>
      <g
         transform="translate(555.28891,-353.86753)"
         id="g1489">
        <path
           d="m 536.76947,481.34406 v -48.19104 h 20.44677 q 7.57288,0 13.14927,3.098 5.57639,3.09799 8.60554,8.53668 3.098,5.43869 3.098,12.46084 0,7.02215 -3.098,12.46084 -3.02915,5.43869 -8.60554,8.53669 -5.57639,3.09799 -13.14927,3.09799 z m 14.87038,-11.63468 h 4.75026 q 4.61257,0 7.64172,-3.30457 3.02915,-3.3045 3.02915,-9.15627 0,-5.78291 -3.02915,-9.08748 -3.02915,-3.37336 -7.64172,-3.37336 h -4.75026 z"
           style="font-style:normal;font-variant:normal;font-weight:900;font-stretch:normal;font-size:110.18px;line-height:1.25;font-family:MuseoModerno;-inkscape-font-specification:'MuseoModerno Heavy';letter-spacing:0px;word-spacing:0px;fill:#ff9400;fill-opacity:1;stroke:none;stroke-width:1.72112"
           id="path1477" />
        <path
           sodipodi:nodetypes="sscsccscsccs"
           d="m 604.932,481.34406 c -3.25864,0 -6.1042,-0.68844 -8.5367,-2.06533 -2.43251,-1.37689 -4.31425,-3.18978 -5.64524,-5.43869 -1.33099,-2.29483 -1.99649,-4.8191 -1.99649,-7.57288 v -33.11414 h 14.87038 v 33.25179 c 0,0.87209 0.29833,1.65232 0.89498,2.34076 0.64255,0.64252 1.42278,0.96381 2.34071,0.96381 h 17.81724 v 11.63468 z"
           style="font-style:normal;font-variant:normal;font-weight:900;font-stretch:normal;font-size:110.18px;line-height:1.25;font-family:MuseoModerno;-inkscape-font-specification:'MuseoModerno Heavy';letter-spacing:0px;word-spacing:0px;fill:#ff9400;fill-opacity:1;stroke:none;stroke-width:1.72112"
           id="path1479" />
        <path
           d="m 632.5797,433.15337 v 48.19141 h 6.13086 v -21.84961 h 18.29883 v -5.17383 H 638.71056 V 438.3272 h 22.12305 v -5.17383 z"
           style="font-style:normal;font-variant:normal;font-weight:normal;font-stretch:normal;font-size:110.18px;line-height:1.25;font-family:Electrolize;-inkscape-font-specification:Electrolize;letter-spacing:7.9375px;word-spacing:0px;fill:#0095ff;fill-opacity:1;stroke:none;stroke-width:1.70705"
           id="path1481" />
        <path
           d="m 674.65678,433.15337 c -1.15166,0 -2.28361,0.47981 -3.40234,1.41211 l -1.63867,1.36523 c -1.14425,0.95347 -1.71289,2.12817 -1.71289,3.56446 v 35.50586 c 0,1.43589 0.56997,2.61392 1.71289,3.5664 l 1.63867,1.36524 c 1.11911,0.93254 2.25062,1.41211 3.40234,1.41211 h 24.99024 c 1.15182,0 2.28305,-0.47941 3.40234,-1.41211 l 1.63867,-1.36524 c 1.14259,-0.95223 1.71094,-2.12946 1.71094,-3.5664 v -35.50586 c 0,-1.43735 -0.56682,-2.61108 -1.71094,-3.56446 l -1.63867,-1.36523 c -1.11911,-0.9326 -2.25059,-1.41211 -3.40234,-1.41211 z m 1.83399,5.17188 c 0.15172,-0.004 0.32557,0.002 0.6914,0.002 h 19.93946 c 0.73168,0 0.69478,-0.0216 1.25195,0.0566 l 0.11719,0.0156 0.14062,0.0547 0.17188,0.0352 0.12695,0.0664 c 0.32676,0.17051 0.26505,0.15287 0.5957,0.41016 0.0817,0.0631 0.1544,0.12382 0.21485,0.17774 0.0634,0.0565 0.0566,0.0547 0.0566,0.0547 l 0.0117,0.0117 0.0117,0.0117 c 0,0 0.0123,0.0103 0.0449,0.043 0,0 -0.0917,-0.0935 0.008,0.004 l 0.23633,0.23242 0.0371,0.20117 0.10547,0.21094 0.01,0.21875 c 0.014,0.28109 0.008,0.167 0.008,0.79687 v 32.63867 c 0,0.6124 -0.0464,0.96925 -0.0605,1.05469 l -0.0547,0.33203 -0.23633,0.23633 c -0.0556,0.0556 -0.043,0.0391 -0.043,0.0391 l -0.004,0.004 -0.004,0.004 c -0.006,0.006 -0.0227,0.0221 -0.043,0.041 -0.043,0.0398 -0.0723,0.063 -0.0762,0.0664 -0.0685,0.0594 -0.13953,0.1189 -0.22266,0.18359 -0.37415,0.29103 -0.57453,0.41125 -0.75,0.49609 l -0.15625,0.0762 -0.17383,0.0195 c -0.19726,0.0239 -0.57606,0.0488 -1.32421,0.0488 h -19.93946 c -0.74814,0 -1.12803,-0.0248 -1.32617,-0.0488 l -0.17187,-0.0195 -0.15625,-0.0762 c -0.17935,-0.0863 -0.37845,-0.20557 -0.75196,-0.49609 -0.26294,-0.20453 -0.35351,-0.28906 -0.35351,-0.28906 l -0.30664,-0.27149 -0.041,-0.40625 c -0.0175,-0.17355 -0.041,-0.42763 -0.041,-0.99414 V 440.9291 c 10e-6,-0.62083 0.0212,-0.88382 0.0293,-0.97265 l 0.0352,-0.375 0.26562,-0.26758 c 0,0 0.12948,-0.12789 0.41211,-0.34766 0.33123,-0.2577 0.27102,-0.24118 0.60352,-0.41211 l 0.125,-0.0645 0.16601,-0.0352 0.13672,-0.0527 0.1211,-0.0176 c 0.28116,-0.0393 0.41077,-0.0543 0.5625,-0.0586 z"
           style="font-style:normal;font-variant:normal;font-weight:normal;font-stretch:normal;font-size:110.18px;line-height:1.25;font-family:Electrolize;-inkscape-font-specification:Electrolize;letter-spacing:7.9375px;word-spacing:0px;fill:#0095ff;fill-opacity:1;stroke:none;stroke-width:1.70703"
           id="path1483" />
        <path
           d="m 716.08309,433.15337 v 48.19141 h 6.13086 v -19.11914 h 9.52539 l 9.01171,14.43164 0.008,0.0137 c 0.65201,1.11779 1.49134,2.02684 2.51758,2.72656 l 1.29492,0.88477 c 0.73002,0.50186 1.22742,0.80202 1.54883,0.91015 l 0.0137,0.004 c 0.34528,0.0987 0.94293,0.14844 1.76172,0.14844 h 1.90234 v -2.86133 c 0,-1.05557 -0.0342,-1.68564 -0.22461,-2.06641 -0.13461,-0.26921 -0.70577,-0.72426 -1.5,-1.16797 l -0.76367,-0.41601 -0.0234,-0.0117 c -0.65176,-0.36703 -1.02302,-0.60305 -1.24805,-0.76953 l -0.11914,-0.0879 -0.0918,-0.1211 c -0.17725,-0.23403 -0.4505,-0.62764 -0.90625,-1.33203 l -6.83985,-10.62304 h 3.46289 c 1.14528,-7e-5 2.22048,-0.42755 3.25196,-1.26758 l 1.7207,-1.44532 c 1.18863,-0.99846 1.7793,-2.21809 1.7793,-3.70117 v -15.97656 c 0,-1.43733 -0.56738,-2.6135 -1.71094,-3.56641 l -1.63867,-1.36132 c -1.11968,-0.93308 -2.25058,-1.41407 -3.40235,-1.41407 z m 23.62695,5.17188 c 0.15172,0.004 0.28133,0.0193 0.5625,0.0586 l 0.12109,0.0176 0.13672,0.0527 0.16992,0.0352 0.12696,0.0664 c 0.32679,0.17052 0.26505,0.15287 0.5957,0.41016 0.0816,0.063 0.15428,0.12369 0.21484,0.17774 0.0266,0.0237 0.0487,0.0472 0.0547,0.0527 l 0.0137,0.0117 0.0137,0.0137 c 0.003,0.003 0.007,0.005 0.01,0.008 0.0105,0.0107 0.0332,0.0332 0.0332,0.0332 0.006,0.006 -7e-4,-0.002 0.008,0.006 l 0.23632,0.23242 0.0371,0.20117 0.10547,0.21094 0.01,0.21875 c 0.014,0.28109 0.008,0.167 0.008,0.79687 v 13.51953 c 0,0.66584 -0.0543,1.01927 -0.0586,1.04688 l -0.0586,0.37304 -0.27343,0.24024 -0.006,0.006 c -0.009,0.008 -0.006,0.004 -0.006,0.004 v 0.002 c -0.006,0.006 -0.0226,0.022 -0.043,0.041 -0.023,0.0213 -0.0553,0.0498 -0.0937,0.082 -0.0639,0.0548 -0.13625,0.11441 -0.20508,0.16797 -0.37569,0.29216 -0.58375,0.41324 -0.75195,0.49414 l -0.1543,0.0742 -0.16797,0.0215 c -0.19852,0.025 -0.58181,0.0508 -1.33008,0.0508 h -16.80468 v -18.72461 h 16.80468 c 0.36585,0 0.53969,-0.006 0.69141,-0.002 z m 5.4043,24.60937 c -0.99392,0.58734 -2.07158,0.92034 -3.24805,0.97852 l 0.0215,0.0351 c 1.17237,-0.0591 2.24058,-0.41315 3.22657,-1.01367 z"
           style="font-style:normal;font-variant:normal;font-weight:normal;font-stretch:normal;font-size:110.18px;line-height:1.25;font-family:Electrolize;-inkscape-font-specification:Electrolize;letter-spacing:7.9375px;word-spacing:0px;fill:#0095ff;fill-opacity:1;stroke:none;stroke-width:1.70703"
           id="path1485" />
        <path
           d="m 758.08394,433.15337 v 48.19141 h 25.45899 c 1.2392,0 2.37708,-0.47883 3.41015,-1.41797 l 0.0156,-0.0156 6.5332,-5.43945 c 1.11211,-0.92673 1.70899,-1.89332 1.70899,-2.88477 v -28.67776 c 0,-0.99117 -0.59655,-1.9558 -1.70899,-2.88281 l -6.5332,-5.43946 -0.0156,-0.0156 c -1.03306,-0.93917 -2.17092,-1.41797 -3.41015,-1.41797 z m 6.12891,5.17383 h 16.87305 c 1.12568,0 2.17586,0.43385 3.14453,1.31445 l 3.28515,2.73633 c 1.0543,0.8785 1.56641,1.75647 1.56641,2.58008 v 24.58008 c 0,0.82435 -0.5124,1.70169 -1.56641,2.58007 l -3.29687,2.75 0.0117,-0.0117 c -0.96868,0.88061 -2.01886,1.31445 -3.14453,1.31445 h -16.87305 z"
           style="font-style:normal;font-variant:normal;font-weight:normal;font-stretch:normal;font-size:110.18px;line-height:1.25;font-family:Electrolize;-inkscape-font-specification:Electrolize;letter-spacing:7.9375px;word-spacing:0px;fill:#0095ff;fill-opacity:1;stroke:none;stroke-width:1.70703"
           id="path1487" />
      </g>
    </g>
  </g>
</svg>
