<?xml version="1.0" standalone="no"?>
<!DOCTYPE svg PUBLIC "-//W3C//DTD SVG 20010904//EN"
 "http://www.w3.org/TR/2001/REC-SVG-20010904/DTD/svg10.dtd">
<svg version="1.0" xmlns="http://www.w3.org/2000/svg"
 width="700.000000pt" height="700.000000pt" viewBox="0 0 700.000000 700.000000"
 preserveAspectRatio="xMidYMid meet">
<metadata>
Created by potrace 1.14, written by Peter Selinger 2001-2017
</metadata>
<g transform="translate(0.000000,700.000000) scale(0.100000,-0.100000)"
fill="#000000" stroke="none">
<path d="M1125 6163 c3 -27 93 -1119 200 -2427 107 -1309 198 -2382 202 -2386
4 -4 452 -132 996 -285 761 -214 995 -276 1020 -271 17 4 455 129 972 279
l940 273 4 29 c14 122 418 4821 414 4825 -3 3 -1073 6 -2379 8 l-2375 2 6 -47z
m2545 -1231 c0 -4 -57 -32 -127 -61 -331 -140 -493 -248 -549 -366 -45 -94
-30 -145 85 -293 40 -51 70 -99 68 -106 -7 -18 -285 -266 -297 -266 -6 0 -47
37 -93 83 -135 136 -221 165 -328 109 -64 -33 -88 -71 -96 -149 -5 -49 -11
-64 -41 -96 -58 -60 -108 -90 -136 -83 -22 5 -245 239 -269 282 -17 30 4 60
84 122 75 57 85 62 132 62 62 0 126 34 157 84 11 19 26 62 31 95 10 53 17 67
58 106 67 64 176 146 342 257 186 124 329 195 444 221 36 8 535 7 535 -1z
m954 -55 c9 -13 7 -25 -8 -50 -186 -320 -198 -353 -153 -430 45 -77 171 -157
246 -157 43 1 105 35 137 76 17 22 70 101 118 177 92 143 112 160 138 115 21
-37 18 -364 -5 -459 -19 -81 -67 -172 -119 -226 -75 -78 -208 -118 -335 -102
-168 22 -179 22 -250 1 -38 -12 -87 -34 -109 -50 -49 -36 -454 -431 -454 -443
0 -5 187 -226 415 -492 229 -265 418 -492 421 -504 12 -45 -6 -71 -103 -153
-107 -88 -133 -100 -172 -79 -14 8 -210 225 -436 482 l-410 468 -480 -484
c-264 -266 -490 -489 -502 -496 -44 -23 -66 -13 -156 70 -97 90 -122 127 -112
168 4 17 183 203 502 522 355 356 493 501 487 510 -4 8 -70 85 -147 171 -104
118 -138 163 -135 180 4 27 250 248 277 248 11 0 73 -64 166 -172 81 -95 153
-173 158 -173 6 0 101 95 211 210 254 266 255 268 268 500 5 88 13 183 19 212
22 113 134 218 343 324 123 62 160 69 180 36z"/>
</g>
</svg>
