<?xml version="1.0" standalone="no"?>
<!DOCTYPE svg PUBLIC "-//W3C//DTD SVG 20010904//EN"
 "http://www.w3.org/TR/2001/REC-SVG-20010904/DTD/svg10.dtd">
<svg version="1.0" xmlns="http://www.w3.org/2000/svg"
 width="1920.000000pt" height="1920.000000pt" viewBox="0 0 1920.000000 1920.000000"
 preserveAspectRatio="xMidYMid meet">
<metadata>
Created by potrace 1.14, written by Peter Selinger 2001-2017
</metadata>
<g transform="translate(0.000000,1920.000000) scale(0.100000,-0.100000)"
fill="#000000" stroke="none">
<path d="M13499 17056 c-2 -2 -44 -7 -94 -10 -84 -6 -412 -53 -426 -61 -3 -2
-19 -7 -35 -9 -16 -3 -63 -14 -104 -25 -714 -181 -1345 -573 -1828 -1136 -23
-28 -51 -59 -60 -70 -81 -92 -252 -344 -339 -500 -43 -78 -132 -259 -165 -335
-6 -14 -17 -38 -24 -55 -20 -45 -58 -151 -84 -230 -21 -64 -24 -76 -29 -97 -1
-4 -8 -26 -16 -49 -9 -23 -17 -51 -19 -63 -3 -12 -13 -59 -24 -106 -11 -47
-25 -112 -31 -145 -10 -55 -13 -77 -25 -152 -3 -16 -8 -55 -11 -88 -4 -33 -10
-73 -13 -90 -3 -16 -7 -694 -9 -1505 -9 -4506 -8 -4219 -26 -4295 -45 -190
-94 -318 -175 -455 -103 -173 -279 -358 -436 -457 -71 -46 -178 -103 -192
-103 -8 0 -14 -4 -14 -8 0 -4 -17 -13 -37 -19 -21 -7 -70 -23 -109 -37 -40
-13 -85 -27 -100 -29 -16 -3 -60 -11 -99 -18 -79 -15 -320 -18 -410 -6 -231
31 -470 131 -660 276 -162 123 -300 285 -393 463 -37 72 -99 220 -108 260 -2
10 -6 26 -8 36 -2 9 -9 35 -14 57 -27 104 -38 367 -21 490 73 519 434 963 924
1135 50 17 97 33 105 35 184 41 242 46 507 47 l213 1 0 1086 0 1086 -232 -1
c-207 -1 -428 -10 -476 -18 -9 -2 -48 -7 -87 -11 -38 -4 -77 -9 -86 -10 -9 -2
-34 -6 -55 -9 -22 -4 -61 -11 -89 -16 -27 -6 -59 -12 -70 -14 -196 -40 -493
-134 -690 -219 -102 -45 -338 -169 -437 -230 -461 -285 -845 -659 -1132 -1099
-104 -160 -245 -426 -297 -562 -11 -28 -26 -64 -34 -81 -14 -32 -84 -230 -90
-255 -2 -8 -17 -64 -34 -125 -18 -60 -34 -122 -36 -138 -3 -15 -12 -59 -20
-98 -8 -39 -18 -94 -21 -122 -4 -29 -8 -54 -9 -57 -2 -3 -6 -33 -10 -65 -4
-33 -8 -71 -10 -84 -25 -153 -20 -612 8 -796 4 -22 9 -60 12 -85 30 -240 142
-644 240 -865 8 -19 22 -52 31 -72 105 -240 278 -529 450 -748 271 -346 608
-644 981 -868 455 -272 991 -446 1528 -495 164 -15 632 -7 733 13 12 2 47 6
79 10 32 3 65 8 73 10 8 2 33 6 55 10 22 3 68 12 102 20 35 8 75 17 91 20 15
2 43 10 62 15 19 6 46 13 59 16 14 3 74 21 135 41 570 183 1063 486 1466 900
151 156 190 200 284 323 71 92 226 319 239 350 4 8 20 38 37 65 46 74 172 335
218 450 100 251 180 553 217 820 3 22 8 51 10 65 4 22 14 137 20 230 2 19 3
509 4 1088 1 1133 -2 1069 49 1043 185 -94 645 -214 943 -246 30 -4 68 -8 84
-11 17 -3 173 -8 348 -11 l317 -5 0 1076 0 1076 -217 0 c-259 1 -304 4 -446
36 -435 96 -804 401 -981 809 -38 87 -84 237 -93 300 -3 22 -9 60 -13 85 -11
54 -10 311 1 360 4 19 10 53 14 75 46 307 253 645 520 853 138 107 360 216
506 248 162 36 231 43 379 39 85 -1 169 -6 185 -9 101 -21 140 -31 225 -58
119 -38 211 -82 320 -150 111 -70 117 -75 240 -198 135 -134 221 -262 303
-450 16 -36 46 -123 52 -150 2 -8 10 -40 18 -72 25 -92 31 -150 42 -412 8
-180 9 -192 21 -190 5 1 88 5 184 9 96 4 202 8 235 10 33 2 123 6 200 9 77 3
178 8 225 11 93 6 244 13 415 20 120 5 304 14 430 20 141 7 379 18 413 19 l33
0 -6 141 c-3 77 -8 172 -10 210 -11 163 -16 231 -20 255 -2 14 -7 45 -10 70
-83 603 -321 1180 -689 1665 -118 156 -336 392 -461 500 -27 24 -63 55 -80 70
-185 161 -489 358 -745 482 -288 139 -662 260 -927 298 -21 4 -63 10 -93 15
-30 5 -80 12 -110 16 -30 3 -73 8 -95 11 -48 6 -531 13 -536 9z"/>
<path d="M5409 16917 c-80 -24 -143 -87 -215 -212 -141 -248 -195 -341 -204
-355 -5 -8 -22 -37 -38 -65 -54 -95 -75 -131 -300 -520 -222 -384 -391 -677
-429 -745 -41 -72 -193 -336 -202 -350 -8 -12 -112 -192 -272 -470 -15 -25
-42 -72 -61 -105 -19 -33 -97 -168 -173 -300 -76 -132 -141 -244 -145 -250 -4
-5 -21 -35 -38 -65 -16 -30 -69 -122 -117 -205 -48 -82 -101 -175 -118 -205
-16 -30 -36 -62 -43 -71 -8 -8 -14 -18 -14 -22 0 -3 -16 -34 -36 -68 -20 -34
-111 -190 -201 -348 -91 -157 -215 -371 -275 -476 -61 -104 -135 -233 -165
-285 -30 -52 -63 -111 -75 -130 -24 -42 -381 -660 -450 -780 -27 -47 -53 -92
-57 -100 -9 -13 -169 -291 -211 -365 -10 -16 -50 -86 -90 -155 -40 -69 -81
-139 -91 -157 -10 -17 -71 -123 -135 -235 -141 -243 -153 -273 -150 -359 3
-85 -4 -71 229 -472 70 -119 127 -220 127 -223 0 -2 8 -17 19 -32 21 -31 196
-331 219 -377 8 -16 23 -41 32 -55 9 -14 29 -46 43 -73 15 -26 146 -253 291
-505 145 -251 273 -473 284 -492 10 -19 43 -75 72 -125 29 -49 61 -106 72
-125 11 -19 37 -64 58 -100 21 -36 47 -81 58 -100 10 -19 92 -161 182 -315 89
-154 174 -300 188 -325 13 -25 48 -85 77 -135 29 -49 63 -109 76 -131 63 -109
191 -331 199 -344 12 -20 257 -445 285 -495 25 -44 28 -49 258 -447 190 -327
173 -299 218 -373 20 -33 38 -65 40 -70 2 -6 74 -131 159 -278 85 -147 160
-275 165 -285 6 -9 30 -53 54 -97 24 -44 52 -91 61 -105 10 -14 28 -45 42 -70
14 -25 34 -61 45 -80 11 -19 53 -91 92 -160 39 -69 75 -132 80 -140 13 -19
197 -339 234 -405 96 -169 185 -316 214 -352 20 -25 56 -53 91 -70 l57 -28
4175 0 4175 0 46 21 c86 40 120 85 275 360 16 28 67 116 114 197 47 81 90 155
95 165 48 84 189 328 407 705 142 247 268 465 280 485 11 20 35 62 53 92 18
30 46 78 62 105 34 60 150 263 177 308 105 180 236 411 236 418 0 5 5 9 10 9
6 0 10 4 10 10 0 5 13 31 29 58 15 26 40 68 53 93 14 24 39 66 54 93 16 26 38
65 50 85 11 20 81 142 156 271 74 129 149 260 167 290 17 30 36 62 41 70 26
42 74 126 75 130 0 3 8 16 17 30 8 14 67 115 131 225 63 110 124 216 136 235
11 19 24 41 28 49 3 8 36 64 71 125 36 61 72 125 80 141 9 17 18 32 21 35 4 3
19 30 35 60 16 30 42 74 58 98 15 24 28 45 28 47 0 2 57 102 126 222 70 120
135 234 146 253 11 19 29 51 40 70 11 19 79 136 150 260 72 124 154 266 183
315 49 84 480 830 523 905 11 19 38 67 61 105 86 144 96 172 96 260 -1 64 -6
89 -24 124 -23 44 -281 494 -346 601 -18 30 -44 75 -57 100 -14 25 -50 88 -81
140 -64 111 -80 140 -165 286 -35 60 -67 116 -72 124 -69 118 -100 171 -100
175 0 3 -17 33 -38 67 -21 35 -41 70 -45 78 -4 8 -16 29 -26 45 -21 34 -80
136 -119 205 -13 25 -28 50 -32 55 -4 6 -19 30 -32 55 -14 25 -50 88 -81 140
l-55 95 -79 -1 c-104 -2 -586 -24 -589 -28 -1 0 47 -84 106 -186 58 -102 166
-288 239 -415 74 -126 168 -290 210 -363 42 -73 81 -140 86 -150 6 -9 36 -62
68 -117 32 -55 62 -107 67 -115 6 -8 85 -145 176 -305 92 -159 209 -363 260
-452 l94 -163 -66 -112 c-37 -62 -77 -132 -90 -155 -13 -23 -62 -108 -109
-188 -47 -81 -85 -149 -85 -151 0 -3 -42 -73 -78 -129 -6 -11 -15 -26 -18 -33
-4 -8 -76 -133 -160 -279 -85 -146 -154 -270 -154 -274 0 -5 -4 -9 -10 -9 -5
0 -10 -4 -10 -9 0 -6 -72 -134 -160 -285 -88 -152 -160 -278 -160 -281 0 -2
-16 -29 -35 -59 -19 -30 -35 -57 -35 -59 0 -3 -18 -35 -41 -72 -22 -37 -50
-84 -61 -104 -81 -144 -374 -651 -389 -673 -10 -15 -19 -29 -19 -32 0 -3 -14
-29 -32 -58 -17 -29 -56 -96 -86 -148 -30 -52 -62 -108 -72 -125 -9 -16 -79
-138 -155 -270 -76 -132 -141 -244 -145 -250 -4 -5 -19 -30 -33 -55 -13 -25
-50 -89 -81 -142 -121 -211 -169 -294 -188 -328 -21 -36 -124 -215 -321 -555
-60 -104 -130 -226 -156 -270 -26 -44 -50 -87 -54 -95 -4 -8 -17 -31 -28 -50
-12 -19 -80 -136 -151 -260 -72 -124 -151 -261 -177 -305 -26 -44 -50 -87 -54
-95 -4 -8 -16 -30 -27 -48 -11 -18 -105 -180 -209 -360 -104 -180 -198 -343
-210 -362 -11 -19 -32 -55 -46 -80 l-25 -45 -3930 0 -3929 0 -167 290 c-92
159 -174 301 -183 315 -9 14 -21 34 -26 45 -6 11 -72 126 -147 255 -75 129
-147 254 -160 276 -38 67 -299 518 -309 534 -10 17 -242 421 -281 490 -26 45
-99 173 -243 420 -43 74 -88 152 -99 172 -12 20 -45 78 -75 130 -30 51 -62
107 -71 123 -10 17 -93 161 -185 320 -154 266 -230 399 -488 845 -49 85 -98
170 -109 188 -101 178 -720 1250 -755 1307 -7 11 -16 27 -20 35 -4 8 -49 87
-100 174 -51 87 -93 160 -93 162 0 1 -21 38 -46 81 -58 97 -79 133 -117 203
-16 30 -36 62 -43 71 -8 8 -14 18 -14 21 0 4 -20 41 -45 82 -25 42 -45 79 -45
82 0 3 -13 24 -28 47 -15 23 -40 65 -54 92 l-26 50 41 70 c82 141 146 251 169
291 12 23 61 107 108 188 47 81 94 164 106 184 25 45 13 24 264 457 111 193
237 410 279 483 42 73 84 147 94 164 10 17 88 153 174 302 86 149 186 323 223
386 36 63 103 178 147 255 45 77 130 223 189 325 59 102 114 199 124 215 53
94 248 431 268 463 12 20 25 44 29 52 4 8 23 42 43 75 20 33 39 67 43 75 4 8
15 29 25 45 10 17 30 50 44 75 14 25 55 96 92 158 36 62 78 134 92 160 15 26
84 146 154 267 190 327 322 556 339 588 9 16 21 36 26 45 26 44 134 231 165
288 19 35 41 69 48 76 6 6 12 15 12 19 0 6 21 44 210 369 62 107 121 210 132
228 23 41 154 268 218 377 25 44 52 90 60 102 l15 23 1945 0 1945 -1 17 23
c10 13 55 73 100 134 114 152 223 286 315 384 23 24 40 47 37 50 -3 2 -1032 5
-2287 5 -2155 0 -2284 -1 -2338 -18z"/>
</g>
</svg>
